<?xml version="1.0" encoding="UTF-8"?>
<svg id="Layer_2" xmlns="http://www.w3.org/2000/svg" viewBox="0 0 165.11 234.1">
  <defs>
    <style>
      .cls-1 {
        stroke: #231f20;
        stroke-miterlimit: 10;
      }
    </style>
  </defs>
  <g id="Layer_3">
    <path class="cls-1" d="M78.15,233.45c-8.92-8.45-40.5-50.75-19.37-93.55,2.5-5.07,6.58-.69,16.17-4.97,32.75-14.62,49.22-15.35,49.41-13.94.4,3.03-29.58,16.77-40.36,25.1-15.79,12.21-1.57,91.42-5.86,87.36Z"/>
    <ellipse class="cls-1" cx="64.04" cy="112.3" rx="17.91" ry="11.25" transform="translate(-49.28 174.51) rotate(-89.07)"/>
    <path class="cls-1" d="M61.73,137.75c-20.04.34-69.89-70.4-45.26-96.82,19.56-20.97,69.38,15.27,60.66,12.09-91.19-33.28-9.5,84.63-15.41,84.73Z"/>
    <ellipse class="cls-1" cx="12.14" cy="18.16" rx="11.25" ry="17.91" transform="translate(-3.59 3) rotate(-12.28)"/>
    <path class="cls-1" d="M125.24,190.88c1.54.26,7.26-26.97,14.26-51.87,1.53-5.43,4.43-8.58,9.4-9.56,1.6-.32,3,1.11,2.62,2.7-2.53,10.79-10.93,46.93-9.77,47.14.19.03.47-.67.54-.86,2.06-5.36,19.62-54.94,22.27-62.42.16-.46-.21-.93-.7-.88-5.08.52-14.28,4.2-18.73.7-4.82-3.78-4.85-11.88-12.53-29.31-6.76-16.05-53.86-34.25-54.45-33.46-.12.15.7.95.88,1.12,48.74,44.36,49.55,85.47,49.55,85.48-4.7,40.81-4.64,51.02-3.35,51.23Z"/>
    <ellipse class="cls-1" cx="118.46" cy="52.54" rx="11.25" ry="17.91" transform="translate(-9 29.18) rotate(-13.53)"/>
  </g>
</svg>